<svg width="115" height="43" viewBox="0 0 115 43" fill="none" xmlns="http://www.w3.org/2000/svg">
<g id="Logo on dark Copy">
<path id="Shape" fill-rule="evenodd" clip-rule="evenodd" d="M3.6001 42.811H6.5113C7.6705 42.811 8.5789 42.4796 9.2365 41.8167C9.9025 41.1604 10.2349 40.2598 10.2349 39.1148C10.2349 37.9697 9.9085 37.0623 9.2569 36.3927C8.6125 35.7231 7.7185 35.3883 6.5725 35.3883H3.6001V42.811ZM5.1229 41.3848V36.8146H6.5833C7.2349 36.8146 7.7425 37.0322 8.1049 37.4674C8.4685 37.9027 8.6509 38.4418 8.6509 39.0847C8.6509 39.7475 8.4685 40.2967 8.1049 40.7319C7.7425 41.1671 7.2349 41.3848 6.5833 41.3848H5.1229Z" fill="white"/>
<path id="Path" fill-rule="evenodd" clip-rule="evenodd" d="M19.549 42.811H14.395V35.3883H19.549V36.7744H15.9286V38.3715H19.2814V39.7576H15.9286V41.4249H19.549V42.811Z" fill="white"/>
<path id="Path_2" fill-rule="evenodd" clip-rule="evenodd" d="M26.7576 40.5209L28.7532 35.3883H30.4812L27.3648 42.811H26.1504L22.9932 35.3883H24.7512L26.7576 40.5209Z" fill="white"/>
<path id="Path_3" fill-rule="evenodd" clip-rule="evenodd" d="M39.4223 42.811H34.2695V35.3883H39.4223V36.7744H35.8019V38.3715H39.1547V39.7576H35.8019V41.4249H39.4223V42.811Z" fill="white"/>
<path id="Path_4" fill-rule="evenodd" clip-rule="evenodd" d="M49.0884 42.811H43.6992V35.3883H45.2316V41.3848H49.0884V42.811Z" fill="white"/>
<path id="Shape_2" fill-rule="evenodd" clip-rule="evenodd" d="M53.3054 41.8368C54.053 42.5668 54.9926 42.9317 56.1242 42.9317C57.2414 42.9317 58.181 42.5601 58.9418 41.8168C59.7098 41.0735 60.0938 40.1694 60.0938 39.1048C60.0938 38.04 59.7098 37.1327 58.9418 36.3827C58.181 35.6328 57.245 35.2578 56.1338 35.2578C55.0226 35.2578 54.0842 35.6328 53.3162 36.3827C52.5542 37.1327 52.1738 38.0467 52.1738 39.1248C52.1738 40.1963 52.5506 41.1003 53.3054 41.8368ZM57.821 37.4073C58.2806 37.8559 58.5098 38.4217 58.5098 39.1048C58.517 39.7811 58.2902 40.3435 57.8318 40.7922C57.3722 41.2409 56.8058 41.4652 56.1338 41.4652C55.4618 41.4652 54.8966 41.2409 54.437 40.7922C53.9846 40.3435 53.7578 39.7811 53.7578 39.1048C53.7578 38.4217 53.9882 37.8559 54.4466 37.4073C54.9134 36.952 55.4762 36.7242 56.1338 36.7242C56.7926 36.7242 57.3542 36.952 57.821 37.4073Z" fill="white"/>
<path id="Shape_3" fill-rule="evenodd" clip-rule="evenodd" d="M67.0238 35.3883H64.2158V42.811H65.7374V40.2497H66.911C67.8434 40.2497 68.543 40.0221 69.0086 39.5667C69.4754 39.098 69.7082 38.5221 69.7082 37.8391C69.7082 37.1494 69.4826 36.5702 69.029 36.1015C68.5838 35.626 67.9154 35.3883 67.0238 35.3883ZM66.9614 38.9038H65.7374V36.7643H67.0442C67.3802 36.7643 67.6478 36.8648 67.847 37.0657C68.0522 37.2665 68.1554 37.5177 68.1554 37.819C68.1554 38.1338 68.0486 38.3949 67.8362 38.6025C67.631 38.8034 67.3394 38.9038 66.9614 38.9038Z" fill="white"/>
<path id="Path_5" fill-rule="evenodd" clip-rule="evenodd" d="M75.167 42.811H73.6646V35.3883H74.6726L77.6558 39.5968L80.6078 35.3883H81.6374V42.811H80.1146V38.6025L77.903 41.7062H77.3786L75.167 38.6025V42.811Z" fill="white"/>
<path id="Path_6" fill-rule="evenodd" clip-rule="evenodd" d="M91.362 42.811H86.208V35.3883H91.362V36.7744H87.7416V38.3715H91.0944V39.7576H87.7416V41.4249H91.362V42.811Z" fill="white"/>
<path id="Path_7" fill-rule="evenodd" clip-rule="evenodd" d="M100.616 39.9785V35.3883H102.119V42.811H101.08L97.1401 38.261V42.811H95.6377V35.3883H96.6049L100.616 39.9785Z" fill="white"/>
<path id="Path_8" fill-rule="evenodd" clip-rule="evenodd" d="M108.156 42.811V36.8246H105.985V35.3883H111.869V36.8246H109.698V42.811H108.156Z" fill="white"/>
<path id="Path_9" fill-rule="evenodd" clip-rule="evenodd" d="M10.3954 27.7311C8.33621 27.7311 6.43061 27.3021 4.68005 26.4442C2.92901 25.5862 1.52093 24.3709 0.456055 22.798L3.47321 19.1161C5.22461 21.5707 7.54301 22.798 10.4302 22.798C11.5186 22.798 12.4186 22.5358 13.1278 22.0115C13.8382 21.4873 14.1934 20.8081 14.1934 19.9741C14.1934 18.8777 13.4002 17.9603 11.815 17.2215C11.6254 17.1262 10.7614 16.7806 9.22301 16.1849C8.01701 15.7083 6.98741 15.2317 6.13541 14.755C3.36677 13.1583 1.98245 10.9659 1.98245 8.17758C1.98245 5.9613 2.81069 4.12638 4.46705 2.6727C6.14741 1.19514 8.30021 0.456299 10.927 0.456299C14.335 0.456299 17.2102 1.6479 19.5526 4.03098L16.7482 7.89162C16.039 7.12902 15.151 6.53334 14.0866 6.10434C13.045 5.65158 12.0154 5.42514 10.9978 5.42514C9.95741 5.42514 9.12941 5.66346 8.51381 6.1401C7.92221 6.59286 7.62581 7.20054 7.62581 7.96314C7.62581 8.98794 8.33621 9.8577 9.75581 10.5727L12.3466 11.7165C13.8142 12.3362 14.8786 12.8008 15.5422 13.1107C18.523 14.5643 20.0146 16.7569 20.0146 19.6881C20.0146 22.0473 19.1266 23.9776 17.3518 25.4791C15.577 26.9804 13.2586 27.7311 10.3954 27.7311Z" fill="white"/>
<path id="Shape_4" fill-rule="evenodd" clip-rule="evenodd" d="M35.6832 0.884277H25.9932V27.3011H31.2468V18.1858H35.2932C38.5116 18.1858 40.9248 17.3754 42.534 15.7549C44.1432 14.0868 44.9484 12.0373 44.9484 9.60648C44.9484 7.15188 44.1672 5.09052 42.6048 3.42228C41.0664 1.73028 38.76 0.884277 35.6832 0.884277ZM35.4708 13.3956H31.2468V5.7816H35.754C36.9144 5.7816 37.8372 6.13908 38.5236 6.85404C39.2328 7.569 39.588 8.46264 39.588 9.53496C39.588 10.655 39.2208 11.5844 38.4876 12.3233C37.7772 13.0382 36.7716 13.3956 35.4708 13.3956Z" fill="white"/>
<path id="Path_10" fill-rule="evenodd" clip-rule="evenodd" d="M69.0373 27.3011H50.4385V0.884277H55.7269V22.2251H69.0373V27.3011Z" fill="white"/>
<path id="Path_11" fill-rule="evenodd" clip-rule="evenodd" d="M74.2236 27.3011L82.1232 0.884277H88.0464L80.1468 27.3011H74.2236Z" fill="#FF4141"/>
<path id="Path_12" fill-rule="evenodd" clip-rule="evenodd" d="M101.685 27.3011V5.99604H94.1963V0.884277H114.499V5.99604H107.01V27.3011H101.685Z" fill="white"/>
</g>
</svg>
