<svg xmlns="http://www.w3.org/2000/svg" width="115" height="43" fill="none" viewBox="0 0 115 43">
    <path fill="#fff" fill-rule="evenodd" d="M3.6 42.811h2.911c1.16 0 2.068-.331 2.725-.994.666-.657.999-1.557.999-2.702s-.327-2.053-.978-2.722c-.645-.67-1.539-1.005-2.685-1.005H3.6v7.423zm1.523-1.426v-4.57h1.46c.652 0 1.16.217 1.522.652.363.436.546.975.546 1.618 0 .663-.183 1.212-.546 1.647-.363.435-.87.653-1.522.653h-1.46zM19.55 42.811h-5.155v-7.423h5.154v1.386h-3.62v1.597h3.353v1.387h-3.353v1.667h3.62v1.386zM26.758 40.52l1.995-5.132h1.728l-3.116 7.423H26.15l-3.157-7.423h1.758l2.007 5.133zM39.422 42.811H34.27v-7.423h5.152v1.386h-3.62v1.597h3.353v1.387h-3.353v1.667h3.62v1.386zM49.088 42.811H43.7v-7.423h1.533v5.997h3.856v1.426zM53.305 41.837c.748.73 1.687 1.095 2.819 1.095 1.117 0 2.057-.372 2.818-1.115.768-.743 1.152-1.648 1.152-2.712 0-1.065-.384-1.972-1.152-2.722-.761-.75-1.697-1.125-2.808-1.125-1.112 0-2.05.375-2.818 1.125-.762.75-1.142 1.664-1.142 2.742 0 1.071.376 1.975 1.131 2.712zm4.516-4.43c.46.449.689 1.015.689 1.698.007.676-.22 1.239-.678 1.687-.46.449-1.026.673-1.698.673-.672 0-1.238-.224-1.697-.673-.453-.449-.68-1.01-.68-1.687 0-.683.231-1.25.69-1.698.466-.455 1.029-.683 1.687-.683.658 0 1.22.228 1.687.683zM67.024 35.388h-2.808v7.423h1.521V40.25h1.174c.932 0 1.632-.228 2.097-.683.467-.469.7-1.045.7-1.728 0-.69-.226-1.269-.68-1.737-.444-.476-1.113-.714-2.004-.714zm-.063 3.516h-1.224v-2.14h1.307c.336 0 .604.1.803.302.205.2.308.452.308.753 0 .315-.107.576-.319.783-.205.201-.497.302-.875.302zM75.167 42.811h-1.503v-7.423h1.008l2.984 4.209 2.952-4.209h1.03v7.423h-1.524v-4.209l-2.211 3.104h-.525l-2.211-3.104v4.209zM91.362 42.811h-5.154v-7.423h5.154v1.386h-3.62v1.597h3.352v1.387h-3.352v1.667h3.62v1.386zM100.616 39.978v-4.59h1.503v7.423h-1.039l-3.94-4.55v4.55h-1.502v-7.423h.967l4.011 4.59zM108.156 42.811v-5.986h-2.171v-1.437h5.884v1.437h-2.171v5.986h-1.542zM10.396 27.731c-2.06 0-3.965-.429-5.716-1.287-1.75-.858-3.159-2.073-4.224-3.646l3.017-3.682c1.752 2.455 4.07 3.682 6.958 3.682 1.088 0 1.988-.262 2.697-.786.71-.525 1.066-1.204 1.066-2.038 0-1.096-.794-2.014-2.379-2.753-.19-.095-1.053-.44-2.592-1.036-1.206-.477-2.235-.953-3.087-1.43-2.769-1.597-4.153-3.79-4.153-6.577 0-2.217.828-4.052 2.484-5.505C6.147 1.195 8.3.456 10.927.456c3.408 0 6.284 1.192 8.626 3.575l-2.805 3.86c-.709-.762-1.597-1.358-2.661-1.787-1.042-.452-2.071-.679-3.089-.679-1.04 0-1.868.238-2.484.715-.592.453-.888 1.06-.888 1.823 0 1.025.71 1.895 2.13 2.61l2.59 1.143c1.469.62 2.533 1.085 3.197 1.395 2.98 1.453 4.472 3.646 4.472 6.577 0 2.36-.888 4.29-2.663 5.791-1.775 1.501-4.093 2.252-6.956 2.252zM35.683.884h-9.69v26.417h5.254v-9.115h4.046c3.219 0 5.632-.81 7.241-2.431 1.61-1.668 2.414-3.718 2.414-6.149 0-2.454-.78-4.515-2.343-6.184C41.066 1.73 38.76.884 35.683.884zm-.212 12.512h-4.224V5.782h4.507c1.16 0 2.083.357 2.77 1.072.709.715 1.064 1.609 1.064 2.681 0 1.12-.367 2.05-1.1 2.788-.71.715-1.716 1.073-3.017 1.073zM69.037 27.301H50.438V.884h5.289v21.341h13.31v5.076z" clip-rule="evenodd"/>
    <path fill="#FF4141" fill-rule="evenodd" d="M74.224 27.301l7.9-26.417h5.922l-7.9 26.417h-5.922z" clip-rule="evenodd"/>
    <path fill="#fff" fill-rule="evenodd" d="M101.686 27.301V5.996h-7.49V.884H114.5v5.112h-7.489v21.305h-5.324z" clip-rule="evenodd"/>
</svg>
