<svg width="18" height="19" viewBox="0 0 18 19" fill="none" xmlns="http://www.w3.org/2000/svg">
<path fill-rule="evenodd" clip-rule="evenodd" d="M2.2031 0.220806C2.39878 -0.0644873 2.87466 -0.0644873 3.07034 0.220806C3.43804 0.753282 5.27344 3.47395 5.27344 4.73926C5.27344 5.59729 4.85532 6.3536 4.21875 6.83538V16.4111C4.21875 17.2835 3.50909 17.9932 2.63672 17.9932C1.76435 17.9932 1.05469 17.2835 1.05469 16.4111V6.83538C0.418113 6.3536 0 5.59729 0 4.73926C0 3.47395 1.8354 0.753282 2.2031 0.220806ZM11.1445 4.28223C8.98467 4.28223 6.92578 5.31994 5.6373 7.05852C5.54667 7.18058 5.51268 7.33559 5.54565 7.4844C5.57757 7.63273 5.67236 7.75992 5.80419 7.83358C6.82175 8.39797 7.45312 9.46194 7.45312 10.6104C7.45312 11.9431 6.61061 13.1379 5.35714 13.5833C5.21191 13.6348 5.09759 13.7461 5.04197 13.8887C4.98635 14.0319 4.99563 14.1915 5.06668 14.327C6.26351 16.5883 8.59226 17.9932 11.1445 17.9932C14.9245 17.9932 18 14.9177 18 11.1377C18 7.3577 14.9245 4.28223 11.1445 4.28223ZM11.1445 16.9385C9.1742 16.9385 7.36042 15.9487 6.28822 14.3213C7.63748 13.5967 8.50781 12.1749 8.50781 10.6104C8.50781 9.28788 7.88157 8.04986 6.83926 7.25367C7.93308 6.04447 9.50379 5.33692 11.1445 5.33692C14.3426 5.33692 16.9453 7.93915 16.9453 11.1377C16.9453 14.3363 14.3426 16.9385 11.1445 16.9385ZM3.16406 16.4111C3.16406 16.7021 2.92718 16.9385 2.63672 16.9385C2.34626 16.9385 2.10938 16.7021 2.10938 16.4111V7.32261C2.27985 7.35738 2.45609 7.37598 2.63672 7.37598C2.81735 7.37598 2.99359 7.35738 3.16406 7.32261V16.4111ZM1.05469 4.73926C1.05469 5.61163 1.76435 6.32129 2.63672 6.32129C3.50909 6.32129 4.21875 5.61163 4.21875 4.73926C4.21875 4.16245 3.39581 2.65974 2.63672 1.47374C1.87762 2.66026 1.05469 4.16351 1.05469 4.73926ZM11.1445 12.7197C10.2722 12.7197 9.5625 13.4294 9.5625 14.3018C9.5625 15.1741 10.2722 15.8838 11.1445 15.8838C12.0169 15.8838 12.7266 15.1741 12.7266 14.3018C12.7266 13.4294 12.0169 12.7197 11.1445 12.7197ZM10.6172 14.3018C10.6172 14.5927 10.8541 14.8291 11.1445 14.8291C11.435 14.8291 11.6719 14.5927 11.6719 14.3018C11.6719 14.0108 11.435 13.7744 11.1445 13.7744C10.8541 13.7744 10.6172 14.0108 10.6172 14.3018ZM14.3086 9.55567C13.4362 9.55567 12.7266 10.2653 12.7266 11.1377C12.7266 12.0101 13.4362 12.7197 14.3086 12.7197C15.181 12.7197 15.8906 12.0101 15.8906 11.1377C15.8906 10.2653 15.181 9.55567 14.3086 9.55567ZM13.7812 11.1377C13.7812 11.4287 14.0181 11.665 14.3086 11.665C14.5991 11.665 14.8359 11.4287 14.8359 11.1377C14.8359 10.8467 14.5991 10.6104 14.3086 10.6104C14.0181 10.6104 13.7812 10.8467 13.7812 11.1377ZM11.1445 9.55567C12.0169 9.55567 12.7266 8.846 12.7266 7.97364C12.7266 7.10127 12.0169 6.39161 11.1445 6.39161C10.2722 6.39161 9.5625 7.10127 9.5625 7.97364C9.5625 8.846 10.2722 9.55567 11.1445 9.55567ZM11.6719 7.97364C11.6719 7.68268 11.435 7.44629 11.1445 7.44629C10.8541 7.44629 10.6172 7.68268 10.6172 7.97364C10.6172 8.26459 10.8541 8.50098 11.1445 8.50098C11.435 8.50098 11.6719 8.26459 11.6719 7.97364Z" fill="url(#paint0_linear)"/>
<defs>
<linearGradient id="paint0_linear" x1="17.9846" y1="17.9623" x2="17.9846" y2="0.00682738" gradientUnits="userSpaceOnUse">
<stop stop-color="#F11F23"/>
<stop offset="1" stop-color="#FF8183"/>
</linearGradient>
</defs>
</svg>
