<svg width="18" height="18" viewBox="0 0 18 18" fill="none" xmlns="http://www.w3.org/2000/svg">
<path fill-rule="evenodd" clip-rule="evenodd" d="M17.4727 0H0.527344C0.235863 0 0 0.235863 0 0.527344V14.3086C0 14.6001 0.235863 14.8359 0.527344 14.8359H7.21332L6.51023 16.9453H5.83594C5.54446 16.9453 5.30859 17.1812 5.30859 17.4727C5.30859 17.7641 5.54446 18 5.83594 18H12.1641C12.4555 18 12.6914 17.7641 12.6914 17.4727C12.6914 17.1812 12.4555 16.9453 12.1641 16.9453H11.4898L10.7867 14.8359H17.4727C17.7641 14.8359 18 14.6001 18 14.3086V0.527344C18 0.235863 17.7641 0 17.4727 0ZM7.62261 16.9453L8.3257 14.8359H9.67433L10.3774 16.9453H7.62261ZM1.05469 13.7812H16.9453V1.05469H1.05469V13.7812ZM3.72656 5.30859H5.40573C5.62416 5.92109 6.20402 6.36328 6.89062 6.36328C7.57723 6.36328 8.15709 5.92109 8.37552 5.30859H14.2734C14.5649 5.30859 14.8008 5.07273 14.8008 4.78125C14.8008 4.48977 14.5649 4.25391 14.2734 4.25391H8.37552C8.15709 3.64141 7.57723 3.19922 6.89062 3.19922C6.20402 3.19922 5.62416 3.64141 5.40573 4.25391H3.72656C3.43508 4.25391 3.19922 4.48977 3.19922 4.78125C3.19922 5.07273 3.43508 5.30859 3.72656 5.30859ZM7.41797 4.78125C7.41797 4.4903 7.18109 4.25391 6.89062 4.25391C6.60016 4.25391 6.36328 4.4903 6.36328 4.78125C6.36328 5.0722 6.60016 5.30859 6.89062 5.30859C7.18109 5.30859 7.41797 5.0722 7.41797 4.78125ZM3.72656 10.582H9.62448C9.84291 11.1945 10.4228 11.6367 11.1094 11.6367C11.796 11.6367 12.3758 11.1945 12.5943 10.582H14.2734C14.5649 10.582 14.8008 10.3462 14.8008 10.0547C14.8008 9.76321 14.5649 9.52734 14.2734 9.52734H12.5943C12.3758 8.91485 11.796 8.47266 11.1094 8.47266C10.4228 8.47266 9.84291 8.91485 9.62448 9.52734H3.72656C3.43508 9.52734 3.19922 9.76321 3.19922 10.0547C3.19922 10.3462 3.43508 10.582 3.72656 10.582ZM11.6367 10.0547C11.6367 9.76373 11.3998 9.52734 11.1094 9.52734C10.8189 9.52734 10.582 9.76373 10.582 10.0547C10.582 10.3456 10.8189 10.582 11.1094 10.582C11.3998 10.582 11.6367 10.3456 11.6367 10.0547Z" fill="url(#paint0_linear)"/>
<defs>
<linearGradient id="paint0_linear" x1="17.9846" y1="17.9691" x2="17.9846" y2="-8.56835e-06" gradientUnits="userSpaceOnUse">
<stop stop-color="#F11F23"/>
<stop offset="1" stop-color="#FF8183"/>
</linearGradient>
</defs>
</svg>
