<svg width="20" height="18" viewBox="0 0 20 18" fill="none" xmlns="http://www.w3.org/2000/svg">
<path fill-rule="evenodd" clip-rule="evenodd" d="M18.6375 0H0.5625C0.251588 0 0 0.251588 0 0.5625V17.4375C0 17.7484 0.251588 18 0.5625 18H18.6375C18.9484 18 19.2 17.7484 19.2 17.4375V0.5625C19.2 0.251588 18.9484 0 18.6375 0ZM18.075 16.875H1.125V4.5H18.075V16.875ZM1.125 3.375H18.075V1.125H7.9125V1.6875C7.9125 1.99841 7.66091 2.25 7.35 2.25C7.03909 2.25 6.7875 1.99841 6.7875 1.6875V1.125H5.6625V1.6875C5.6625 1.99841 5.41091 2.25 5.1 2.25C4.78909 2.25 4.5375 1.99841 4.5375 1.6875V1.125H3.4125V1.6875C3.4125 1.99841 3.16091 2.25 2.85 2.25C2.53909 2.25 2.2875 1.99841 2.2875 1.6875V1.125H1.125V3.375ZM2.85 10.125H16.35C16.6609 10.125 16.9125 9.87341 16.9125 9.5625V6.1875C16.9125 5.87659 16.6609 5.625 16.35 5.625H2.85C2.53909 5.625 2.2875 5.87659 2.2875 6.1875V9.5625C2.2875 9.87341 2.53909 10.125 2.85 10.125ZM15.7875 6.75H3.4125V9H15.7875V6.75ZM2.85 15.75H8.475C8.78591 15.75 9.0375 15.4984 9.0375 15.1875V11.8125C9.0375 11.5016 8.78591 11.25 8.475 11.25H2.85C2.53909 11.25 2.2875 11.5016 2.2875 11.8125V15.1875C2.2875 15.4984 2.53909 15.75 2.85 15.75ZM7.9125 12.375H3.4125V14.625H7.9125V12.375ZM16.35 11.25H10.725C10.4141 11.25 10.1625 11.5016 10.1625 11.8125V15.1875C10.1625 15.4984 10.4141 15.75 10.725 15.75H16.35C16.6609 15.75 16.9125 15.4984 16.9125 15.1875V11.8125C16.9125 11.5016 16.6609 11.25 16.35 11.25ZM11.2875 14.625H15.7875V12.375H11.2875V14.625Z" fill="url(#paint0_linear)"/>
<defs>
<linearGradient id="paint0_linear" x1="19.1835" y1="17.9691" x2="19.1835" y2="-8.56835e-06" gradientUnits="userSpaceOnUse">
<stop stop-color="#F11F23"/>
<stop offset="1" stop-color="#FF8183"/>
</linearGradient>
</defs>
</svg>
